<svg xmlns="http://www.w3.org/2000/svg" viewBox="0 0 80 80" fill="none">
  <!-- Outer flame -->
  <path d="M40 68 C24 68 14 56 14 44 C14 30 24 20 32 14 C30 24 34 28 38 22 C42 16 44 10 40 6 C52 14 66 28 66 44 C66 56 56 68 40 68Z"
        fill="rgba(255,106,0,0.15)" stroke="#ff6a00" stroke-width="1.5"/>
  <!-- Inner flame -->
  <path d="M40 62 C32 62 26 54 26 46 C26 36 34 28 38 24 C36 32 40 36 42 30 C48 40 54 48 54 54 C54 60 48 62 40 62Z"
        fill="rgba(255,106,0,0.2)" stroke="#ff6a00" stroke-width="0.8" opacity="0.7"/>
  <!-- Core -->
  <ellipse cx="40" cy="54" rx="6" ry="8" fill="rgba(255,106,0,0.35)" stroke="#ff6a00" stroke-width="0.6" opacity="0.6"/>
</svg>
